<svg width="16" height="16" viewBox="0 0 16 16" fill="none" xmlns="http://www.w3.org/2000/svg">
<path d="M2.34319 13.6568C5.46745 16.7811 10.5326 16.7811 13.6568 13.6568C16.7811 10.5326 16.7811 5.46745 13.6568 2.34319C10.5326 -0.781064 5.46745 -0.781064 2.34319 2.34319C-0.781064 5.46745 -0.781064 10.5326 2.34319 13.6568Z" fill="#3F4064"/>
<path d="M10.687 9.83846L8.84852 8L10.687 6.16154C10.9189 5.92961 10.9189 5.54494 10.687 5.31302C10.4551 5.08109 10.0704 5.08109 9.83846 5.31302L8 7.15148L6.16154 5.31302C5.92961 5.08109 5.54495 5.08109 5.31302 5.31302C5.08109 5.54494 5.08109 5.92961 5.31302 6.16154L7.15148 8L5.31302 9.83846C5.08109 10.0704 5.08109 10.4551 5.31302 10.687C5.54495 10.9189 5.92961 10.9189 6.16154 10.687L8 8.84852L9.83846 10.687C10.0704 10.9189 10.4551 10.9189 10.687 10.687C10.9189 10.4551 10.9189 10.0704 10.687 9.83846Z" fill="white"/>
</svg>
